<mxfile host="app.diagrams.net" agent="Mozilla/5.0 (Macintosh; Intel Mac OS X 10_15_7) AppleWebKit/605.1.15 (KHTML, like Gecko) Version/18.0 Safari/605.1.15" version="28.0.7">
  <diagram name="第 1 页" id="FKC3VioXV_GLaEQw4p2L">
    <mxGraphModel dx="946" dy="551" grid="1" gridSize="10" guides="1" tooltips="1" connect="1" arrows="1" fold="1" page="1" pageScale="1" pageWidth="827" pageHeight="1169" math="0" shadow="0">
      <root>
        <mxCell id="0" />
        <mxCell id="1" parent="0" />
        <mxCell id="9Bq3ixo_5q3f_IpCoRvA-1" value="" style="rounded=1;whiteSpace=wrap;html=1;arcSize=2;fillColor=#f5f5f5;fontColor=#333333;strokeColor=#666666;" vertex="1" parent="1">
          <mxGeometry x="200" y="130" width="640" height="300" as="geometry" />
        </mxCell>
        <mxCell id="9Bq3ixo_5q3f_IpCoRvA-2" value="" style="rounded=1;whiteSpace=wrap;html=1;dashed=1;dashPattern=1 4;movable=1;resizable=1;rotatable=1;deletable=1;editable=1;locked=0;connectable=1;fillColor=#ffe6cc;strokeColor=#d79b00;" vertex="1" parent="1">
          <mxGeometry x="510" y="330" width="320" height="90" as="geometry" />
        </mxCell>
        <mxCell id="9Bq3ixo_5q3f_IpCoRvA-3" style="edgeStyle=orthogonalEdgeStyle;rounded=0;orthogonalLoop=1;jettySize=auto;html=1;exitX=0.5;exitY=0;exitDx=0;exitDy=0;entryX=0.5;entryY=1;entryDx=0;entryDy=0;fillColor=#ffe6cc;strokeColor=#d79b00;strokeWidth=2;" edge="1" parent="1" source="9Bq3ixo_5q3f_IpCoRvA-4" target="9Bq3ixo_5q3f_IpCoRvA-6">
          <mxGeometry relative="1" as="geometry" />
        </mxCell>
        <mxCell id="9Bq3ixo_5q3f_IpCoRvA-4" value="&lt;font style=&quot;font-size: 18px;&quot;&gt;新获取信息&lt;/font&gt;" style="shape=document;whiteSpace=wrap;html=1;boundedLbl=1;fillColor=light-dark(#a8dadc, #ededed);" vertex="1" parent="1">
          <mxGeometry x="327.5" y="440" width="125" height="70" as="geometry" />
        </mxCell>
        <mxCell id="9Bq3ixo_5q3f_IpCoRvA-5" style="edgeStyle=orthogonalEdgeStyle;rounded=0;orthogonalLoop=1;jettySize=auto;html=1;exitX=0.5;exitY=0;exitDx=0;exitDy=0;entryX=0.5;entryY=1;entryDx=0;entryDy=0;strokeWidth=2;fillColor=#d5e8d4;strokeColor=#82b366;" edge="1" parent="1" source="9Bq3ixo_5q3f_IpCoRvA-6" target="9Bq3ixo_5q3f_IpCoRvA-7">
          <mxGeometry relative="1" as="geometry" />
        </mxCell>
        <mxCell id="9Bq3ixo_5q3f_IpCoRvA-6" value="&lt;font style=&quot;font-size: 18px;&quot;&gt;知识提取模块&lt;/font&gt;" style="rounded=1;whiteSpace=wrap;html=1;fillColor=#ffe6cc;strokeColor=#d79b00;" vertex="1" parent="1">
          <mxGeometry x="320" y="345" width="140" height="60" as="geometry" />
        </mxCell>
        <mxCell id="9Bq3ixo_5q3f_IpCoRvA-7" value="&lt;font style=&quot;font-size: 18px;&quot;&gt;知识链接模块&lt;/font&gt;" style="rounded=1;whiteSpace=wrap;html=1;fillColor=#d5e8d4;strokeColor=#82b366;" vertex="1" parent="1">
          <mxGeometry x="320" y="230" width="140" height="60" as="geometry" />
        </mxCell>
        <mxCell id="9Bq3ixo_5q3f_IpCoRvA-8" value="" style="shape=cube;whiteSpace=wrap;html=1;boundedLbl=1;backgroundOutline=1;darkOpacity=0.05;darkOpacity2=0.1;movable=1;resizable=1;rotatable=1;deletable=1;editable=1;locked=0;connectable=1;fillColor=#e1d5e7;strokeColor=#9673a6;" vertex="1" parent="1">
          <mxGeometry x="525" y="380" width="60" height="30" as="geometry" />
        </mxCell>
        <mxCell id="9Bq3ixo_5q3f_IpCoRvA-9" value="" style="shape=cube;whiteSpace=wrap;html=1;boundedLbl=1;backgroundOutline=1;darkOpacity=0.05;darkOpacity2=0.1;movable=1;resizable=1;rotatable=1;deletable=1;editable=1;locked=0;connectable=1;fillColor=#e1d5e7;strokeColor=#9673a6;" vertex="1" parent="1">
          <mxGeometry x="585" y="380" width="60" height="30" as="geometry" />
        </mxCell>
        <mxCell id="9Bq3ixo_5q3f_IpCoRvA-10" value="" style="shape=cube;whiteSpace=wrap;html=1;boundedLbl=1;backgroundOutline=1;darkOpacity=0.05;darkOpacity2=0.1;movable=1;resizable=1;rotatable=1;deletable=1;editable=1;locked=0;connectable=1;fillColor=#e1d5e7;strokeColor=#9673a6;" vertex="1" parent="1">
          <mxGeometry x="645" y="380" width="60" height="30" as="geometry" />
        </mxCell>
        <mxCell id="9Bq3ixo_5q3f_IpCoRvA-11" value="" style="shape=cube;whiteSpace=wrap;html=1;boundedLbl=1;backgroundOutline=1;darkOpacity=0.05;darkOpacity2=0.1;movable=1;resizable=1;rotatable=1;deletable=1;editable=1;locked=0;connectable=1;fillColor=#e1d5e7;strokeColor=#9673a6;" vertex="1" parent="1">
          <mxGeometry x="705" y="380" width="60" height="30" as="geometry" />
        </mxCell>
        <mxCell id="9Bq3ixo_5q3f_IpCoRvA-12" value="" style="shape=cube;whiteSpace=wrap;html=1;boundedLbl=1;backgroundOutline=1;darkOpacity=0.05;darkOpacity2=0.1;movable=1;resizable=1;rotatable=1;deletable=1;editable=1;locked=0;connectable=1;fillColor=#e1d5e7;strokeColor=#9673a6;" vertex="1" parent="1">
          <mxGeometry x="525" y="340" width="60" height="30" as="geometry" />
        </mxCell>
        <mxCell id="9Bq3ixo_5q3f_IpCoRvA-13" value="" style="shape=cube;whiteSpace=wrap;html=1;boundedLbl=1;backgroundOutline=1;darkOpacity=0.05;darkOpacity2=0.1;movable=1;resizable=1;rotatable=1;deletable=1;editable=1;locked=0;connectable=1;fillColor=#e1d5e7;strokeColor=#9673a6;" vertex="1" parent="1">
          <mxGeometry x="585" y="340" width="60" height="30" as="geometry" />
        </mxCell>
        <mxCell id="9Bq3ixo_5q3f_IpCoRvA-14" value="" style="shape=cube;whiteSpace=wrap;html=1;boundedLbl=1;backgroundOutline=1;darkOpacity=0.05;darkOpacity2=0.1;movable=1;resizable=1;rotatable=1;deletable=1;editable=1;locked=0;connectable=1;fillColor=#e1d5e7;strokeColor=#9673a6;" vertex="1" parent="1">
          <mxGeometry x="645" y="340" width="60" height="30" as="geometry" />
        </mxCell>
        <mxCell id="9Bq3ixo_5q3f_IpCoRvA-15" value="" style="shape=cube;whiteSpace=wrap;html=1;boundedLbl=1;backgroundOutline=1;darkOpacity=0.05;darkOpacity2=0.1;movable=1;resizable=1;rotatable=1;deletable=1;editable=1;locked=0;connectable=1;fillColor=#e1d5e7;strokeColor=#9673a6;" vertex="1" parent="1">
          <mxGeometry x="705" y="340" width="60" height="30" as="geometry" />
        </mxCell>
        <mxCell id="9Bq3ixo_5q3f_IpCoRvA-16" value="" style="rounded=1;whiteSpace=wrap;html=1;dashed=1;dashPattern=1 4;movable=1;resizable=1;rotatable=1;deletable=1;editable=1;locked=0;connectable=1;fillColor=#d5e8d4;strokeColor=#82b366;" vertex="1" parent="1">
          <mxGeometry x="510" y="206.25" width="320" height="103.75" as="geometry" />
        </mxCell>
        <mxCell id="9Bq3ixo_5q3f_IpCoRvA-17" value="" style="rounded=1;whiteSpace=wrap;html=1;dashed=1;dashPattern=1 4;movable=1;resizable=1;rotatable=1;deletable=1;editable=1;locked=0;connectable=1;fillColor=#d5e8d4;strokeColor=#82b366;" vertex="1" parent="1">
          <mxGeometry x="520" y="212.5" width="110" height="95" as="geometry" />
        </mxCell>
        <mxCell id="9Bq3ixo_5q3f_IpCoRvA-18" value="" style="shape=cube;whiteSpace=wrap;html=1;boundedLbl=1;backgroundOutline=1;darkOpacity=0.05;darkOpacity2=0.1;movable=1;resizable=1;rotatable=1;deletable=1;editable=1;locked=0;connectable=1;fillColor=#e1d5e7;strokeColor=#9673a6;" vertex="1" parent="1">
          <mxGeometry x="570" y="226.25" width="50" height="22.5" as="geometry" />
        </mxCell>
        <mxCell id="9Bq3ixo_5q3f_IpCoRvA-19" value="" style="shape=cube;whiteSpace=wrap;html=1;boundedLbl=1;backgroundOutline=1;darkOpacity=0.05;darkOpacity2=0.1;movable=1;resizable=1;rotatable=1;deletable=1;editable=1;locked=0;connectable=1;fillColor=#e1d5e7;strokeColor=#9673a6;" vertex="1" parent="1">
          <mxGeometry x="570" y="248.75" width="50" height="22.5" as="geometry" />
        </mxCell>
        <mxCell id="9Bq3ixo_5q3f_IpCoRvA-20" value="" style="shape=cube;whiteSpace=wrap;html=1;boundedLbl=1;backgroundOutline=1;darkOpacity=0.05;darkOpacity2=0.1;movable=1;resizable=1;rotatable=1;deletable=1;editable=1;locked=0;connectable=1;fillColor=#e1d5e7;strokeColor=#9673a6;" vertex="1" parent="1">
          <mxGeometry x="570" y="271.25" width="50" height="22.5" as="geometry" />
        </mxCell>
        <mxCell id="9Bq3ixo_5q3f_IpCoRvA-21" value="" style="shape=actor;whiteSpace=wrap;html=1;movable=1;resizable=1;rotatable=1;deletable=1;editable=1;locked=0;connectable=1;fillColor=#dae8fc;strokeColor=#6c8ebf;" vertex="1" parent="1">
          <mxGeometry x="525" y="230" width="40" height="60" as="geometry" />
        </mxCell>
        <mxCell id="9Bq3ixo_5q3f_IpCoRvA-22" value="&lt;font style=&quot;font-size: 24px;&quot;&gt;...&lt;/font&gt;" style="text;html=1;align=center;verticalAlign=middle;whiteSpace=wrap;rounded=0;movable=1;resizable=1;rotatable=1;deletable=1;editable=1;locked=0;connectable=1;" vertex="1" parent="1">
          <mxGeometry x="770" y="340" width="60" height="30" as="geometry" />
        </mxCell>
        <mxCell id="9Bq3ixo_5q3f_IpCoRvA-23" value="&lt;font style=&quot;font-size: 24px;&quot;&gt;...&lt;/font&gt;" style="text;html=1;align=center;verticalAlign=middle;whiteSpace=wrap;rounded=0;movable=1;resizable=1;rotatable=1;deletable=1;editable=1;locked=0;connectable=1;" vertex="1" parent="1">
          <mxGeometry x="770" y="376" width="60" height="30" as="geometry" />
        </mxCell>
        <mxCell id="9Bq3ixo_5q3f_IpCoRvA-24" value="" style="rounded=1;whiteSpace=wrap;html=1;dashed=1;dashPattern=1 4;movable=1;resizable=1;rotatable=1;deletable=1;editable=1;locked=0;connectable=1;fillColor=#d5e8d4;strokeColor=#82b366;" vertex="1" parent="1">
          <mxGeometry x="665" y="210" width="110" height="95" as="geometry" />
        </mxCell>
        <mxCell id="9Bq3ixo_5q3f_IpCoRvA-25" value="" style="shape=cube;whiteSpace=wrap;html=1;boundedLbl=1;backgroundOutline=1;darkOpacity=0.05;darkOpacity2=0.1;movable=1;resizable=1;rotatable=1;deletable=1;editable=1;locked=0;connectable=1;fillColor=#e1d5e7;strokeColor=#9673a6;" vertex="1" parent="1">
          <mxGeometry x="715" y="223.75" width="50" height="22.5" as="geometry" />
        </mxCell>
        <mxCell id="9Bq3ixo_5q3f_IpCoRvA-26" value="" style="shape=cube;whiteSpace=wrap;html=1;boundedLbl=1;backgroundOutline=1;darkOpacity=0.05;darkOpacity2=0.1;movable=1;resizable=1;rotatable=1;deletable=1;editable=1;locked=0;connectable=1;fillColor=#e1d5e7;strokeColor=#9673a6;" vertex="1" parent="1">
          <mxGeometry x="715" y="246.25" width="50" height="22.5" as="geometry" />
        </mxCell>
        <mxCell id="9Bq3ixo_5q3f_IpCoRvA-27" value="" style="shape=cube;whiteSpace=wrap;html=1;boundedLbl=1;backgroundOutline=1;darkOpacity=0.05;darkOpacity2=0.1;movable=1;resizable=1;rotatable=1;deletable=1;editable=1;locked=0;connectable=1;fillColor=#e1d5e7;strokeColor=#9673a6;" vertex="1" parent="1">
          <mxGeometry x="715" y="268.75" width="50" height="22.5" as="geometry" />
        </mxCell>
        <mxCell id="9Bq3ixo_5q3f_IpCoRvA-28" value="" style="shape=actor;whiteSpace=wrap;html=1;movable=1;resizable=1;rotatable=1;deletable=1;editable=1;locked=0;connectable=1;fillColor=#dae8fc;strokeColor=#6c8ebf;" vertex="1" parent="1">
          <mxGeometry x="670" y="227.5" width="40" height="60" as="geometry" />
        </mxCell>
        <mxCell id="9Bq3ixo_5q3f_IpCoRvA-29" value="&lt;font style=&quot;font-size: 24px;&quot;&gt;...&lt;/font&gt;" style="text;html=1;align=center;verticalAlign=middle;whiteSpace=wrap;rounded=0;movable=1;resizable=1;rotatable=1;deletable=1;editable=1;locked=0;connectable=1;" vertex="1" parent="1">
          <mxGeometry x="770" y="238.75" width="60" height="30" as="geometry" />
        </mxCell>
        <mxCell id="9Bq3ixo_5q3f_IpCoRvA-30" value="" style="endArrow=classic;startArrow=classic;html=1;rounded=0;exitX=1;exitY=0.5;exitDx=0;exitDy=0;strokeWidth=2;movable=1;resizable=1;rotatable=1;deletable=1;editable=1;locked=0;connectable=1;" edge="1" parent="1" source="9Bq3ixo_5q3f_IpCoRvA-17">
          <mxGeometry width="50" height="50" relative="1" as="geometry">
            <mxPoint x="630" y="261" as="sourcePoint" />
            <mxPoint x="665" y="260" as="targetPoint" />
          </mxGeometry>
        </mxCell>
        <mxCell id="9Bq3ixo_5q3f_IpCoRvA-31" value="" style="shape=flexArrow;endArrow=classic;startArrow=classic;html=1;rounded=0;fillColor=#d5e8d4;strokeColor=#82b366;" edge="1" parent="1">
          <mxGeometry width="100" height="100" relative="1" as="geometry">
            <mxPoint x="460" y="259.5" as="sourcePoint" />
            <mxPoint x="510" y="259.5" as="targetPoint" />
          </mxGeometry>
        </mxCell>
        <mxCell id="9Bq3ixo_5q3f_IpCoRvA-32" value="" style="shape=flexArrow;endArrow=classic;startArrow=classic;html=1;rounded=0;fillColor=#ffe6cc;strokeColor=#d79b00;" edge="1" parent="1">
          <mxGeometry width="100" height="100" relative="1" as="geometry">
            <mxPoint x="460" y="374.5" as="sourcePoint" />
            <mxPoint x="510" y="374.5" as="targetPoint" />
          </mxGeometry>
        </mxCell>
        <mxCell id="9Bq3ixo_5q3f_IpCoRvA-33" style="edgeStyle=orthogonalEdgeStyle;rounded=0;orthogonalLoop=1;jettySize=auto;html=1;exitX=0.5;exitY=1;exitDx=0;exitDy=0;entryX=0;entryY=0.5;entryDx=0;entryDy=0;fillColor=#f8cecc;strokeColor=#b85450;strokeWidth=2;" edge="1" parent="1" source="9Bq3ixo_5q3f_IpCoRvA-37" target="9Bq3ixo_5q3f_IpCoRvA-6">
          <mxGeometry relative="1" as="geometry" />
        </mxCell>
        <mxCell id="9Bq3ixo_5q3f_IpCoRvA-34" style="edgeStyle=orthogonalEdgeStyle;rounded=0;orthogonalLoop=1;jettySize=auto;html=1;exitX=1;exitY=0.5;exitDx=0;exitDy=0;entryX=0;entryY=0.5;entryDx=0;entryDy=0;strokeWidth=2;fillColor=#f8cecc;strokeColor=#b85450;" edge="1" parent="1" source="9Bq3ixo_5q3f_IpCoRvA-37" target="9Bq3ixo_5q3f_IpCoRvA-38">
          <mxGeometry relative="1" as="geometry" />
        </mxCell>
        <mxCell id="9Bq3ixo_5q3f_IpCoRvA-35" style="edgeStyle=orthogonalEdgeStyle;rounded=0;orthogonalLoop=1;jettySize=auto;html=1;exitX=0.5;exitY=0;exitDx=0;exitDy=0;strokeColor=#b85450;fontColor=#1D3557;fillColor=#f8cecc;strokeWidth=2;" edge="1" parent="1" source="9Bq3ixo_5q3f_IpCoRvA-37">
          <mxGeometry relative="1" as="geometry">
            <mxPoint x="250" y="100" as="targetPoint" />
          </mxGeometry>
        </mxCell>
        <mxCell id="9Bq3ixo_5q3f_IpCoRvA-36" style="edgeStyle=orthogonalEdgeStyle;rounded=0;orthogonalLoop=1;jettySize=auto;html=1;exitX=0.5;exitY=1;exitDx=0;exitDy=0;entryX=0;entryY=0.5;entryDx=0;entryDy=0;strokeColor=#b85450;fontColor=#1D3557;fillColor=#f8cecc;strokeWidth=2;" edge="1" parent="1" source="9Bq3ixo_5q3f_IpCoRvA-37" target="9Bq3ixo_5q3f_IpCoRvA-7">
          <mxGeometry relative="1" as="geometry" />
        </mxCell>
        <mxCell id="9Bq3ixo_5q3f_IpCoRvA-37" value="&lt;font style=&quot;font-size: 18px;&quot;&gt;调&lt;/font&gt;&lt;div&gt;&lt;font size=&quot;3&quot;&gt;度&lt;/font&gt;&lt;/div&gt;&lt;div&gt;&lt;font size=&quot;3&quot;&gt;器&lt;/font&gt;&lt;/div&gt;" style="rhombus;whiteSpace=wrap;html=1;fillColor=#f8cecc;strokeColor=#b85450;" vertex="1" parent="1">
          <mxGeometry x="210" y="150" width="80" height="80" as="geometry" />
        </mxCell>
        <mxCell id="9Bq3ixo_5q3f_IpCoRvA-38" value="&lt;font size=&quot;4&quot;&gt;优先队列&lt;/font&gt;" style="ellipse;whiteSpace=wrap;html=1;fillColor=#f8cecc;strokeColor=#b85450;" vertex="1" parent="1">
          <mxGeometry x="320" y="163" width="140" height="54" as="geometry" />
        </mxCell>
        <mxCell id="9Bq3ixo_5q3f_IpCoRvA-39" value="&lt;font style=&quot;font-size: 18px;&quot;&gt;最终输出&lt;/font&gt;" style="rounded=1;whiteSpace=wrap;html=1;strokeColor=#457B9D;fontColor=#1D3557;fillColor=#A8DADC;" vertex="1" parent="1">
          <mxGeometry x="190" y="40" width="120" height="60" as="geometry" />
        </mxCell>
        <mxCell id="9Bq3ixo_5q3f_IpCoRvA-40" value="&lt;font size=&quot;4&quot;&gt;提问&lt;/font&gt;" style="rounded=1;whiteSpace=wrap;html=1;strokeColor=#457B9D;fontColor=#1D3557;fillColor=#A8DADC;" vertex="1" parent="1">
          <mxGeometry x="40" y="160" width="120" height="60" as="geometry" />
        </mxCell>
        <mxCell id="9Bq3ixo_5q3f_IpCoRvA-41" style="edgeStyle=orthogonalEdgeStyle;rounded=0;orthogonalLoop=1;jettySize=auto;html=1;exitX=1;exitY=0.5;exitDx=0;exitDy=0;entryX=0;entryY=0.5;entryDx=0;entryDy=0;strokeColor=#b85450;fontColor=#1D3557;fillColor=#f8cecc;strokeWidth=2;" edge="1" parent="1" source="9Bq3ixo_5q3f_IpCoRvA-40" target="9Bq3ixo_5q3f_IpCoRvA-37">
          <mxGeometry relative="1" as="geometry" />
        </mxCell>
        <mxCell id="9Bq3ixo_5q3f_IpCoRvA-42" value="&lt;font style=&quot;font-size: 18px;&quot;&gt;&lt;b&gt;记忆系统&lt;/b&gt;&lt;/font&gt;" style="text;html=1;align=center;verticalAlign=middle;whiteSpace=wrap;rounded=0;fontColor=#1D3557;" vertex="1" parent="1">
          <mxGeometry x="705" y="140" width="121" height="30" as="geometry" />
        </mxCell>
      </root>
    </mxGraphModel>
  </diagram>
</mxfile>
